<?xml version="1.0" standalone="no"?>
<!DOCTYPE svg PUBLIC "-//W3C//DTD SVG 20010904//EN"
 "http://www.w3.org/TR/2001/REC-SVG-20010904/DTD/svg10.dtd">
<svg version="1.0" xmlns="http://www.w3.org/2000/svg"
 width="512.000000pt" height="512.000000pt" viewBox="0 0 512.000000 512.000000"
 preserveAspectRatio="xMidYMid meet">

<g transform="translate(0.000000,512.000000) scale(0.100000,-0.100000)"
fill="#000000" stroke="none">
<path d="M1115 4760 c-552 -111 -978 -546 -1092 -1117 -24 -124 -24 -413 1
-538 38 -194 118 -392 230 -572 172 -278 522 -680 1060 -1219 492 -491 806
-763 1041 -902 92 -54 145 -72 214 -72 101 0 252 86 501 285 468 375 1287
1219 1656 1705 200 263 318 511 370 775 25 126 25 416 1 538 -38 190 -107 359
-210 515 -219 331 -531 539 -910 607 -75 14 -131 16 -250 13 -186 -7 -275 -30
-452 -118 -178 -88 -308 -191 -528 -414 l-187 -191 -57 65 c-112 130 -349 356
-440 420 -169 119 -362 203 -524 230 -101 16 -321 11 -424 -10z"/>
</g>
</svg>
