<?xml version="1.0" standalone="no"?>
<!DOCTYPE svg PUBLIC "-//W3C//DTD SVG 20010904//EN"
 "http://www.w3.org/TR/2001/REC-SVG-20010904/DTD/svg10.dtd">
<svg version="1.0" xmlns="http://www.w3.org/2000/svg"
 width="256.000000pt" height="256.000000pt" viewBox="0 0 256.000000 256.000000"
 preserveAspectRatio="xMidYMid meet">

<g transform="translate(0.000000,256.000000) scale(0.100000,-0.100000)"
fill="#000000" stroke="none">
<path d="M1181 2544 c-111 -40 -185 -122 -210 -234 -9 -42 -9 -42 17 -37 229
42 355 45 511 12 91 -19 91 -19 91 3 0 80 -93 203 -182 242 -69 30 -168 36
-227 14z"/>
<path d="M402 2155 c-134 -42 -208 -196 -153 -320 21 -48 48 -85 60 -85 4 0
27 30 51 68 51 77 181 216 241 258 l41 28 -24 18 c-27 21 -111 48 -147 47 -14
0 -45 -6 -69 -14z"/>
<path d="M2008 2156 c-21 -8 -50 -22 -65 -31 l-27 -18 40 -30 c71 -55 189
-182 241 -260 l52 -77 25 31 c35 41 60 130 52 182 -9 56 -53 132 -94 163 -64
50 -153 65 -224 40z"/>
<path d="M1170 2154 c-99 -13 -290 -72 -290 -90 0 -4 48 -92 108 -195 l107
-189 189 3 188 2 109 188 c60 104 109 190 109 192 0 7 -138 55 -200 70 -67 15
-258 27 -320 19z"/>
<path d="M700 1963 c-187 -141 -336 -388 -365 -603 -4 -25 -8 -55 -11 -67 l-4
-23 224 0 224 0 97 166 c53 91 95 171 93 178 -5 19 -212 376 -218 376 -3 0
-21 -12 -40 -27z"/>
<path d="M1722 1818 c-54 -95 -105 -183 -111 -196 -11 -21 -3 -39 80 -182 l91
-160 226 0 225 0 -6 53 c-16 127 -71 275 -148 393 -49 75 -165 199 -226 242
l-31 22 -100 -172z"/>
<path d="M997 1365 l-95 -166 95 -164 95 -165 187 0 187 0 92 159 c51 88 92
165 92 171 0 6 -42 83 -92 170 l-93 160 -186 0 -187 0 -95 -165z"/>
<path d="M1783 1118 c-24 -32 -183 -316 -183 -327 0 -16 210 -381 219 -381 17
0 136 107 188 169 72 86 125 174 163 274 32 81 60 198 60 248 l0 29 -219 0
c-163 0 -221 -3 -228 -12z"/>
<path d="M330 1083 c1 -93 54 -250 129 -377 51 -86 163 -213 233 -263 l45 -32
112 193 111 194 -92 161 -93 161 -222 0 -223 0 0 -37z"/>
<path d="M1083 708 c-13 -17 -213 -365 -213 -371 0 -10 128 -55 205 -73 114
-27 311 -25 425 3 108 27 184 59 177 76 -3 6 -52 93 -110 192 l-105 180 -185
3 c-140 2 -187 -1 -194 -10z"/>
<path d="M2205 593 c-40 -65 -188 -226 -254 -276 l-34 -25 34 -21 c148 -91
335 -10 371 161 14 66 -6 146 -49 195 l-28 33 -40 -67z"/>
<path d="M287 632 c-37 -41 -60 -113 -54 -174 16 -181 210 -283 365 -192 l45
27 -29 20 c-57 39 -220 213 -258 275 -21 34 -42 62 -46 62 -4 0 -14 -8 -23
-18z"/>
<path d="M1200 80 c0 -20 29 -68 45 -74 45 -17 105 17 105 60 0 23 -2 24 -75
24 -46 0 -75 -4 -75 -10z"/>
</g>
</svg>
