<?xml version="1.0" standalone="no"?>
<!DOCTYPE svg PUBLIC "-//W3C//DTD SVG 20010904//EN"
 "http://www.w3.org/TR/2001/REC-SVG-20010904/DTD/svg10.dtd">
<svg version="1.0" xmlns="http://www.w3.org/2000/svg"
 width="512.000000pt" height="512.000000pt" viewBox="0 0 512.000000 512.000000"
 preserveAspectRatio="xMidYMid meet">

<g transform="translate(0.000000,512.000000) scale(0.100000,-0.100000)"
fill="#000000" stroke="none">
<path d="M1047 4679 c-87 -20 -173 -84 -225 -167 -16 -26 -44 -86 -62 -134
l-33 -87 -49 -10 c-27 -6 -71 -11 -99 -11 -60 0 -111 -20 -133 -51 -15 -21
-16 -179 -16 -1866 0 -1407 3 -1848 12 -1868 27 -59 -113 -55 2118 -55 2231 0
2091 -4 2118 55 9 20 12 461 12 1869 0 1819 0 1844 -20 1868 -27 35 -199 149
-287 191 -40 19 -102 43 -139 53 -116 31 -175 13 -463 -142 -100 -53 -108 -56
-166 -52 -53 3 -75 12 -187 77 -184 106 -235 125 -333 125 -98 -1 -157 -22
-282 -101 -136 -86 -178 -103 -253 -103 -75 0 -117 17 -253 103 -202 128 -316
135 -567 36 -252 -99 -316 -110 -376 -64 -40 31 -70 106 -83 212 -8 68 -13 81
-40 105 -28 25 -39 28 -94 27 -34 -1 -79 -5 -100 -10z m119 -595 c124 -33 194
-34 314 -5 131 32 217 31 364 -4 149 -36 181 -59 181 -130 0 -40 -5 -51 -33
-76 -40 -36 -66 -37 -192 -4 -119 31 -151 31 -294 0 -64 -14 -144 -25 -178
-25 -64 0 -263 43 -310 66 -30 16 -58 61 -58 94 0 36 30 81 63 95 41 18 30 19
143 -11z m2479 -7 c116 -27 187 -26 309 7 83 22 105 25 133 15 72 -23 97 -109
48 -167 -22 -26 -43 -34 -153 -61 -155 -38 -217 -39 -368 -6 -143 31 -175 31
-294 0 -52 -14 -109 -25 -126 -25 -69 0 -118 78 -90 143 8 20 25 42 38 50 20
12 187 57 268 71 42 7 140 -4 235 -27z m152 -478 c98 -47 163 -165 149 -272
-9 -62 -28 -101 -75 -150 -165 -175 -456 -58 -455 183 1 198 203 324 381 239z
m639 -207 c55 -44 59 -109 10 -158 -70 -70 -175 -26 -176 73 0 33 6 48 31 72
24 25 39 31 72 31 25 0 51 -8 63 -18z m-3564 -202 c99 -28 182 -125 195 -227
13 -111 -55 -228 -158 -273 -176 -75 -371 48 -373 235 0 79 18 129 67 182 75
82 169 110 269 83z m1334 -24 c42 -42 47 -95 11 -139 -63 -78 -187 -35 -187
65 0 55 51 108 105 108 29 0 45 -8 71 -34z m409 -242 c285 -49 556 -217 730
-452 68 -93 49 -102 165 73 116 173 224 266 378 322 127 47 293 17 441 -80
238 -156 323 -373 225 -576 -37 -77 -176 -213 -275 -269 -160 -90 -385 -166
-604 -203 -66 -12 -129 -23 -140 -25 -19 -3 -20 -11 -21 -176 0 -159 -2 -180
-27 -261 -78 -252 -228 -434 -491 -592 -104 -62 -274 -142 -311 -145 -47 -5
-68 2 -96 29 -41 42 -38 80 16 201 45 100 116 297 129 357 l7 31 -113 -56
c-220 -111 -433 -162 -668 -161 -74 0 -158 4 -187 8 l-52 7 -63 -64 c-160
-162 -386 -252 -634 -252 -100 0 -128 9 -154 52 -31 52 -25 78 35 161 30 41
55 78 55 81 0 3 -45 6 -101 6 -233 0 -361 72 -376 213 -5 44 -1 64 16 101 28
56 142 164 256 242 l85 58 0 69 c0 102 27 268 62 377 128 405 433 694 893 846
290 95 570 122 820 78z m-1903 -823 c28 -25 33 -36 33 -76 0 -40 -5 -51 -33
-76 -84 -75 -212 10 -169 114 31 72 111 90 169 38z m3689 -407 c101 -30 189
-148 189 -254 0 -106 -88 -224 -189 -254 -67 -20 -94 -20 -157 -1 -64 19 -128
74 -161 139 -74 145 8 330 165 372 64 17 89 17 153 -2z m-492 -659 c90 -45
141 -129 141 -235 0 -105 -51 -190 -139 -235 -138 -69 -292 -20 -360 116 -49
99 -40 192 29 290 24 33 95 78 143 90 50 13 134 1 186 -26z m-1806 -325 c82
-91 -32 -226 -133 -158 -65 44 -65 132 0 176 46 31 94 24 133 -18z"/>
<path d="M3646 3394 c-19 -18 -21 -55 -4 -72 7 -7 24 -12 38 -12 14 0 31 5 38
12 7 7 12 24 12 38 0 14 -5 31 -12 38 -17 17 -54 15 -72 -4z"/>
<path d="M762 2968 c-27 -27 -3 -88 34 -88 31 0 54 21 54 48 0 35 -16 52 -50
52 -14 0 -31 -5 -38 -12z"/>
<path d="M2180 2716 c-227 -33 -470 -116 -624 -213 l-39 -25 44 -27 c64 -40
136 -68 207 -81 88 -18 277 -7 372 20 101 29 234 99 301 159 53 47 121 152
108 166 -14 13 -277 14 -369 1z"/>
<path d="M3948 2656 c-116 -48 -166 -98 -306 -306 -39 -58 -84 -118 -100 -133
-26 -25 -28 -33 -24 -75 4 -45 2 -50 -40 -97 -44 -49 -45 -51 -33 -85 12 -35
12 -35 66 -32 87 5 291 49 406 88 125 42 244 100 329 159 102 73 102 75 -18
68 -99 -6 -105 -5 -131 18 -33 29 -47 73 -35 116 13 51 46 69 136 77 98 8 144
23 140 44 -5 24 -115 109 -183 142 -88 42 -137 46 -207 16z"/>
<path d="M2728 2581 c-24 -51 -59 -101 -103 -149 l-67 -72 14 -43 c10 -31 22
-46 47 -59 l34 -17 82 77 c45 43 123 106 174 141 l93 63 -59 40 c-60 41 -117
73 -156 87 -21 8 -26 3 -59 -68z"/>
<path d="M3049 2296 c-223 -152 -311 -270 -355 -479 -8 -39 -12 -72 -10 -75 7
-6 194 99 283 160 84 56 256 193 292 232 24 26 24 26 7 63 -27 57 -100 163
-112 163 -5 0 -53 -29 -105 -64z"/>
<path d="M1280 2263 c-79 -102 -158 -252 -139 -265 105 -73 271 -76 452 -8 53
20 57 24 56 53 0 18 -8 56 -17 86 l-17 54 -92 47 c-51 25 -110 60 -132 78 -22
18 -42 32 -45 32 -3 0 -32 -35 -66 -77z"/>
<path d="M2290 2216 c-114 -46 -339 -84 -413 -69 -27 6 -29 4 -22 -18 5 -13 8
-74 8 -135 l-1 -111 75 23 c165 51 324 63 542 41 19 -2 26 5 36 33 27 79 28
77 -4 90 -38 15 -108 90 -127 136 -17 39 -20 40 -94 10z"/>
<path d="M3205 1808 c-46 -36 -272 -185 -288 -191 -6 -2 0 -25 15 -58 70 -148
61 -361 -26 -618 -14 -41 -24 -76 -23 -77 8 -8 153 103 212 161 203 200 260
469 169 793 -8 28 -11 28 -59 -10z"/>
<path d="M1064 1741 c-11 -70 -10 -239 1 -249 6 -6 89 -13 185 -17 l175 -6 52
79 c63 96 118 200 111 208 -3 3 -23 1 -44 -5 -132 -35 -310 -30 -416 13 l-57
23 -7 -46z"/>
<path d="M2175 1739 c-95 -13 -212 -45 -320 -88 -87 -35 -90 -37 -122 -95 -18
-32 -33 -61 -33 -65 0 -10 156 6 290 30 137 24 241 49 373 91 l97 30 0 43 c0
36 -4 44 -22 48 -48 12 -196 15 -263 6z"/>
<path d="M2670 1496 c-103 -56 -404 -144 -629 -185 l-145 -26 -23 -59 c-13
-32 -21 -61 -18 -64 12 -12 121 -14 222 -3 134 14 269 49 391 103 97 42 273
147 280 166 5 16 -28 82 -42 82 -6 -1 -22 -7 -36 -14z"/>
<path d="M804 1265 c-86 -65 -103 -83 -84 -95 25 -15 155 -21 245 -11 50 6 93
11 98 11 4 0 7 22 7 49 l0 49 -67 7 c-38 4 -82 15 -99 25 l-31 18 -69 -53z"/>
<path d="M1287 1253 c-2 -5 -5 -32 -6 -62 -2 -74 -27 -165 -66 -247 -19 -38
-32 -70 -30 -72 7 -8 121 31 179 60 79 40 201 162 249 249 21 36 37 69 37 72
0 10 -358 9 -363 0z"/>
<path d="M4278 1465 c-17 -37 3 -75 40 -75 35 0 52 16 52 50 0 34 -17 50 -52
50 -21 0 -32 -7 -40 -25z"/>
<path d="M3744 825 c-15 -23 -15 -27 0 -50 28 -42 96 -24 96 25 0 49 -68 67
-96 25z"/>
</g>
</svg>
